<?xml version="1.0" standalone="no"?>
<!DOCTYPE svg PUBLIC "-//W3C//DTD SVG 20010904//EN"
 "http://www.w3.org/TR/2001/REC-SVG-20010904/DTD/svg10.dtd">
<svg version="1.0" xmlns="http://www.w3.org/2000/svg"
 width="1024.000000pt" height="1024.000000pt" viewBox="0 0 1024.000000 1024.000000"
 preserveAspectRatio="xMidYMid meet">

<g transform="translate(0.000000,1024.000000) scale(0.100000,-0.100000)"
fill="#000000" stroke="none">
<path d="M0 5120 l0 -5120 5120 0 5120 0 0 5120 0 5120 -5120 0 -5120 0 0
-5120z m5545 3933 c50 -26 80 -58 100 -105 29 -71 13 -170 -37 -216 l-27 -26
34 -28 c71 -59 84 -175 29 -265 -53 -86 -109 -100 -381 -95 l-173 2 0 381 0
381 208 -4 c189 -3 211 -5 247 -25z m-605 -185 c32 -250 33 -406 4 -468 -28
-60 -77 -108 -144 -139 -46 -21 -70 -26 -146 -26 -81 0 -96 3 -149 30 -70 36
-118 93 -140 168 -21 71 -97 488 -91 503 4 11 145 54 177 54 12 0 23 -50 53
-227 21 -126 44 -242 51 -259 21 -50 62 -77 113 -71 52 6 88 36 103 87 9 29 5
77 -20 250 -18 118 -34 227 -37 241 -5 25 -3 27 53 37 32 5 79 10 104 11 l45
1 24 -192z m1121 126 c143 -36 255 -79 292 -112 29 -25 57 -92 57 -137 0 -75
-70 -185 -117 -185 -10 0 -5 -12 16 -35 38 -43 45 -71 38 -141 -12 -119 -102
-204 -217 -204 -32 0 -416 92 -426 102 -2 3 14 67 35 144 21 76 64 244 96 372
37 151 62 232 70 232 7 0 78 -16 156 -36z m847 -331 c140 -69 256 -131 258
-138 8 -20 -85 -164 -114 -179 -15 -7 -125 -50 -245 -96 -119 -46 -214 -87
-210 -90 5 -4 30 -15 57 -25 27 -10 91 -37 142 -60 l94 -42 -51 -84 c-28 -46
-53 -86 -55 -88 -2 -2 -66 27 -141 65 -76 39 -187 92 -248 119 -60 27 -112 50
-114 52 -9 6 51 132 72 151 21 19 421 195 474 208 13 4 25 9 28 13 2 4 -69 38
-158 75 -89 38 -163 70 -165 71 -2 2 63 158 74 177 9 14 36 3 302 -129z
m-3038 95 c0 -7 -14 -112 -31 -233 -17 -121 -31 -238 -32 -260 -1 -29 14 -75
56 -168 31 -70 57 -132 57 -137 0 -6 -41 -30 -90 -55 l-90 -45 -11 27 c-5 15
-23 56 -38 92 -15 36 -37 88 -48 116 l-19 49 -130 59 c-71 32 -174 77 -229 99
-55 23 -104 44 -108 48 -7 6 62 71 154 147 14 12 37 4 165 -62 l149 -76 8 108
c4 59 11 135 15 168 l7 59 95 38 c104 41 120 44 120 26z m3485 -364 c41 -31
75 -61 75 -66 0 -5 -14 -30 -32 -56 -77 -115 -355 -506 -379 -534 l-26 -32
-44 36 c-24 19 -54 41 -66 47 -41 21 -56 -8 276 498 58 90 110 163 114 163 4
0 41 -25 82 -56z m283 -219 c44 -36 83 -69 86 -74 3 -5 -12 -96 -33 -202 -21
-107 -37 -195 -36 -197 2 -2 83 22 181 52 98 31 181 56 185 56 7 0 103 -117
122 -148 11 -17 -9 -39 -290 -324 -204 -208 -243 -244 -243 -220 0 4 -24 38
-54 74 l-54 65 126 125 c70 69 140 135 156 146 16 12 22 22 15 22 -8 0 -97
-25 -198 -55 -101 -31 -185 -54 -187 -53 -5 6 62 323 92 438 5 19 -2 14 -26
-20 -19 -25 -75 -94 -125 -155 -50 -60 -102 -124 -114 -142 l-24 -32 -79 60
c-69 53 -77 63 -66 77 7 10 78 95 158 191 80 96 182 221 228 278 45 56 86 103
91 103 5 0 45 -29 89 -65z m-4458 -34 c66 -25 159 -104 196 -167 93 -158 60
-365 -78 -490 -22 -20 -70 -50 -107 -68 -60 -28 -75 -31 -166 -31 -94 0 -105
2 -170 34 -158 78 -249 236 -229 397 14 118 115 259 221 309 100 48 231 55
333 16z m2132 -70 l24 -19 -12 -139 c-7 -76 -10 -168 -7 -204 5 -59 3 -69 -16
-88 -11 -11 -27 -21 -33 -21 -9 0 -8 4 2 10 11 7 6 10 -22 10 -32 0 -37 4 -42
28 -9 40 -36 311 -36 355 0 74 83 114 142 68z m410 -108 c31 -15 55 -52 40
-62 -5 -3 -17 -21 -26 -39 -33 -64 -195 -279 -229 -303 -26 -19 -45 -11 -65
28 -14 25 -5 54 65 213 82 186 117 213 215 163z m-803 0 c12 -10 30 -43 42
-73 l20 -55 -26 30 c-17 20 -4 -12 37 -92 34 -67 65 -120 69 -117 4 2 5 -6 2
-18 -4 -19 -3 -20 6 -8 6 8 11 10 11 5 0 -6 -7 -21 -16 -33 -13 -19 -24 -22
-59 -21 -24 2 -41 7 -38 11 6 11 -27 49 -37 43 -4 -3 -14 3 -21 13 -13 15 -12
16 4 3 36 -28 15 3 -60 87 -92 105 -92 104 -68 67 18 -28 18 -29 0 -15 -30 25
-46 75 -34 107 28 74 116 108 168 66z m-441 -19 c40 -28 19 -94 -31 -94 -26 0
-57 31 -57 57 0 15 39 53 55 53 6 0 21 -7 33 -16z m1641 -18 c27 -29 22 -57
-13 -75 -28 -15 -59 -3 -76 30 -9 16 -8 26 5 45 20 31 55 31 84 0z m440 -226
c30 5 58 10 64 10 6 0 -20 -29 -58 -64 -59 -57 -68 -70 -70 -103 -1 -23 -6
-37 -13 -35 -7 1 -11 -1 -11 -5 3 -18 -2 -33 -10 -33 -15 0 -21 43 -8 59 7 8
7 12 1 8 -6 -3 -18 3 -27 14 -10 11 -30 19 -49 19 -18 0 -40 5 -48 10 -13 9
-13 11 0 19 81 49 85 54 88 115 l3 59 43 -42 42 -41 53 10z m-1728 43 c13 -16
12 -17 -3 -4 -10 7 -18 15 -18 17 0 8 8 3 21 -13z m-816 -49 c28 -19 63 -116
35 -99 -6 4 -7 11 -4 17 4 6 1 9 -7 6 -8 -3 -16 -15 -18 -29 -3 -22 -4 -23
-11 -4 -6 18 -9 17 -27 -13 l-21 -33 -21 44 c-11 24 -21 52 -21 64 0 25 29 51
68 62 1 1 14 -6 27 -15z m577 -12 c20 -11 74 -48 120 -84 45 -35 104 -79 130
-96 26 -18 50 -41 53 -52 8 -25 -2 -57 -19 -63 -13 -5 -129 44 -355 149 -51
24 -71 29 -67 19 3 -8 1 -15 -4 -15 -10 0 -14 27 -10 65 3 32 29 66 63 80 42
18 46 18 89 -3z m1416 4 c15 -8 36 -24 47 -37 11 -12 14 -19 8 -15 -9 5 -13
-2 -13 -23 0 -38 -36 -67 -145 -116 -44 -20 -93 -43 -110 -51 -16 -7 -50 -20
-75 -29 -24 -9 -47 -21 -51 -27 -9 -14 -38 -3 -45 17 -15 39 8 66 140 164 186
138 195 142 244 117z m-3441 -186 c225 -183 293 -248 329 -312 25 -47 29 -63
29 -133 -1 -66 -6 -91 -30 -143 -58 -129 -178 -196 -313 -175 -69 11 -172 49
-172 64 0 5 26 49 59 98 57 87 59 89 80 74 80 -55 171 -17 171 73 0 61 -33 95
-274 284 -87 69 -165 130 -173 137 -9 7 -12 17 -7 25 15 26 116 148 123 148 4
0 84 -63 178 -140z m1429 50 c0 -12 -4 -16 -9 -11 -5 5 -6 14 -3 20 10 15 12
14 12 -9z m78 -6 c3 -8 2 -12 -4 -9 -6 3 -10 10 -10 16 0 14 7 11 14 -7z m-58
-65 c13 -22 28 -38 32 -35 4 2 9 -7 10 -21 1 -15 0 -25 -1 -22 -22 26 -87 130
-78 125 7 -4 23 -25 37 -47z m2853 15 c24 -31 16 -62 -23 -84 -24 -13 -28 -13
-36 0 -5 8 -10 11 -10 6 0 -22 -30 19 -30 42 0 59 63 82 99 36z m-1464 -23
c22 -13 57 -40 78 -60 40 -37 95 -131 77 -131 -5 0 -10 7 -10 15 0 20 -17 19
-28 -1 -7 -13 -12 -10 -30 18 -25 38 -28 32 -8 -16 28 -68 28 -185 -1 -179 -6
1 -9 -6 -6 -15 6 -24 -33 -60 -49 -44 -9 9 -7 17 7 32 35 38 30 180 -6 180 -5
0 -7 -11 -3 -24 17 -67 -55 -177 -129 -197 -74 -20 -156 11 -196 74 l-21 32 0
-27 c0 -19 12 -40 39 -67 68 -68 197 -77 269 -20 17 13 29 16 35 10 28 -28
-87 -91 -165 -91 -79 0 -128 18 -171 61 -27 27 -38 33 -34 20 3 -14 1 -18 -9
-14 -8 3 -11 10 -7 17 3 6 2 7 -3 3 -5 -5 -8 -12 -7 -15 1 -4 -4 -14 -10 -22
-11 -13 -10 -13 6 -1 15 12 17 12 12 -2 -4 -8 -2 -18 4 -22 6 -3 11 -11 11
-17 0 -23 -51 38 -80 96 -75 149 -12 328 143 406 59 30 67 31 157 28 79 -3
102 -8 135 -27z m-1701 -66 c19 -29 21 -46 4 -44 -37 4 -60 -4 -92 -35 -20
-18 -36 -29 -36 -24 0 5 -4 6 -10 3 -5 -3 -10 -21 -10 -38 0 -24 -3 -28 -10
-17 -5 8 -10 37 -10 64 0 41 5 53 34 82 27 27 42 34 74 34 31 0 43 -5 56 -25z
m2778 -32 c25 -22 24 -28 -24 -92 -24 -31 -51 -68 -61 -81 -10 -14 -15 -20
-12 -13 3 6 1 14 -5 18 -5 3 -10 -3 -10 -15 0 -12 -4 -18 -10 -15 -6 3 -10 -4
-10 -16 0 -17 -3 -20 -11 -12 -11 11 40 203 62 229 16 19 59 18 81 -3z m-1855
-89 c127 -18 167 -29 185 -51 11 -15 11 -16 -6 -9 -19 6 -19 6 -3 -12 16 -17
15 -19 -12 -35 -23 -14 -61 -17 -199 -19 -126 -2 -174 0 -183 10 -18 17 -39
15 -39 -4 0 -8 -4 -12 -10 -9 -5 3 -10 24 -10 46 0 31 7 47 29 70 26 25 37 29
85 29 30 0 104 -7 163 -16z m1483 6 c11 -6 25 -20 31 -33 11 -20 11 -21 -4 -9
-13 11 -16 10 -23 -10 -4 -13 -8 -30 -9 -38 -1 -8 -5 -23 -10 -34 -8 -18 -17
-18 -159 -11 -91 4 -164 12 -184 21 -30 12 -33 12 -28 -2 3 -8 2 -12 -4 -9 -6
3 -10 21 -10 39 0 42 20 51 162 76 119 21 211 24 238 10z m656 -16 c14 -4 22
-14 22 -29 0 -17 -5 -22 -16 -18 -8 4 -13 2 -9 -3 3 -5 -3 -21 -14 -34 -15
-19 -21 -22 -28 -12 -6 10 -10 9 -14 -8 -5 -19 -8 -20 -28 -10 -17 10 -23 9
-30 -1 -6 -10 -10 -9 -15 5 -12 31 25 89 66 103 42 14 40 14 66 7z m502 -6
c19 -19 14 -63 -8 -83 -16 -15 -26 -17 -48 -9 -37 13 -52 57 -27 84 20 22 64
27 83 8z m1202 -73 l51 -85 -45 -117 c-41 -109 -225 -564 -258 -641 l-15 -34
-72 115 -72 115 36 72 c35 70 35 72 18 94 -171 222 -165 215 -188 206 -12 -4
-44 -15 -72 -23 l-51 -15 -62 89 c-42 61 -57 91 -48 94 14 5 276 87 523 163
88 28 170 51 182 51 17 1 33 -17 73 -84z m-5124 50 c19 -19 23 -31 18 -48 -14
-45 -62 -61 -96 -30 -24 22 -23 52 4 80 28 29 43 29 74 -2z m560 -56 c94 -75
126 -104 84 -76 -14 9 -41 24 -60 33 -19 8 -43 20 -54 26 -14 7 -16 7 -10 -4
6 -10 5 -10 -7 -2 -16 13 -49 15 -49 3 0 -4 -11 -2 -24 4 -24 12 -24 12 -5 38
10 15 19 32 19 38 0 20 16 11 106 -60z m2866 -11 c-7 -7 -12 -8 -12 -2 0 14
12 26 19 19 2 -3 -1 -11 -7 -17z m-432 -62 c0 -2 -8 -10 -17 -17 -16 -13 -17
-12 -4 4 13 16 21 21 21 13z m300 -48 c0 -6 10 -23 23 -36 l22 -25 -22 12
c-13 6 -23 8 -23 4 0 -4 -14 -16 -30 -25 -17 -9 -30 -23 -30 -31 0 -17 -47
-40 -62 -31 -6 4 -8 2 -5 -3 7 -11 -40 -34 -75 -38 -10 -1 -26 -8 -35 -16 -37
-27 16 25 115 113 94 84 122 101 122 76z m-1787 -49 c27 -14 37 -28 37 -52 0
-19 -33 -51 -53 -52 -21 -2 -109 -46 -200 -101 -130 -79 -121 -76 -150 -54
-25 20 -46 13 -32 -10 3 -5 4 -10 1 -10 -11 0 -36 60 -36 87 0 62 32 82 266
157 164 53 141 48 167 35z m930 -29 c58 -22 111 -40 117 -40 24 0 160 -72 170
-90 8 -16 8 -18 -5 -14 -9 4 -15 0 -15 -9 0 -21 -48 -77 -66 -77 -7 0 -73 34
-146 76 -73 41 -146 78 -161 81 -49 10 -68 61 -36 99 16 20 23 19 142 -26z
m-2207 -36 c30 -52 57 -48 30 5 l-17 31 44 0 c100 0 100 0 135 -118 18 -59 32
-117 32 -129 l0 -22 -37 22 c-21 12 -85 57 -142 100 -83 62 -118 82 -177 99
-41 12 -74 26 -74 30 0 4 12 10 28 14 15 3 32 7 37 9 6 2 33 4 62 4 52 1 52 1
79 -45z m3583 -129 c10 -26 9 -28 -3 -12 -17 22 -29 22 -49 -1 -19 -21 -13
-32 17 -32 20 -1 20 -1 3 -11 -10 -6 -25 -8 -33 -5 -9 3 -12 1 -9 -4 3 -6 15
-10 26 -10 12 0 17 -4 14 -11 -4 -6 -14 -8 -22 -5 -11 4 -13 1 -8 -14 8 -24 3
-25 -38 -3 -18 9 -68 26 -111 38 -112 29 -114 48 -3 44 l85 -4 12 35 c7 19 26
64 42 99 l31 64 17 -69 c10 -38 23 -82 29 -99z m-3286 93 c99 -63 180 -185
211 -319 14 -56 14 -65 0 -72 -8 -4 -12 -12 -9 -17 3 -5 1 -11 -5 -15 -6 -3
-13 1 -16 9 -3 9 -9 14 -14 11 -4 -2 -18 8 -32 23 -14 15 -54 52 -90 82 -65
55 -65 55 -71 118 -4 34 -18 90 -32 125 -41 98 -42 100 -14 92 13 -4 46 -21
72 -37z m1221 13 c-2 -3 -12 3 -22 13 -16 17 -16 18 5 5 12 -7 20 -15 17 -18z
m-1961 -5 c15 -22 14 -24 -6 -34 -18 -9 -65 -10 -74 -2 -2 2 -9 3 -15 4 -17 2
-11 28 9 44 27 20 69 15 86 -12z m360 -48 c43 -30 120 -97 129 -112 10 -17
-193 29 -204 46 -11 17 -28 78 -28 101 0 16 3 16 36 2 19 -8 50 -24 67 -37z
m-1351 12 c24 -30 22 -77 -4 -116 -39 -57 -104 -71 -152 -33 -46 36 -28 130
32 164 37 21 101 13 124 -15z m1038 -30 c0 -5 -2 -10 -4 -10 -3 0 -8 5 -11 10
-3 6 -1 10 4 10 6 0 11 -4 11 -10z m1884 -43 c19 -26 19 -30 5 -40 -9 -7 -24
-28 -34 -47 -39 -77 -140 -232 -158 -241 -14 -8 -29 -5 -59 10 -23 11 -45 18
-50 15 -4 -3 -5 3 -1 12 4 11 3 15 -5 10 -16 -10 -24 28 -12 60 6 15 61 79
123 142 97 98 116 113 141 110 18 -2 37 -14 50 -31z m480 12 c14 -11 26 -27
26 -34 0 -8 8 -22 18 -32 10 -10 35 -39 55 -65 21 -26 41 -47 45 -45 4 1 8 -2
9 -6 1 -4 9 -19 18 -33 19 -30 15 -59 -15 -96 -28 -36 -54 -40 -94 -13 -19 13
-36 22 -38 20 -4 -5 -112 206 -128 248 -8 24 -6 32 15 53 30 29 54 30 89 3z
m1815 -27 c35 -1 66 -4 69 -7 3 -3 -21 -16 -54 -30 -32 -14 -81 -37 -107 -51
-26 -14 -52 -24 -58 -22 -6 2 5 27 25 57 20 29 33 57 30 63 -4 7 0 7 12 0 11
-5 48 -10 83 -10z m-208 -9 c11 -15 11 -16 0 -6 -7 6 -20 9 -27 6 -8 -3 -14 0
-14 6 0 17 26 13 41 -6z m-1853 -36 c10 -11 15 -58 18 -184 l5 -170 -26 -32
c-29 -34 -78 -43 -89 -16 -3 8 -11 14 -18 13 -19 -4 -21 57 -4 227 12 130 17
151 35 166 24 19 57 17 79 -4z m-1622 -52 c12 -3 32 -13 45 -24 l23 -19 -39
-11 c-22 -6 -57 -11 -78 -11 -41 0 -81 -16 -73 -29 10 -16 112 -20 181 -7 l70
14 45 -33 c25 -19 65 -55 90 -81 25 -27 36 -41 24 -31 -23 19 -39 23 -29 7 8
-13 -8 -13 -21 -1 -22 22 -132 78 -127 65 3 -8 9 -14 14 -14 4 0 14 -18 20
-40 11 -35 10 -43 -3 -56 -14 -14 -23 -13 -94 11 -91 31 -126 51 -171 97 -37
38 -102 151 -110 189 l-5 26 109 -24 c59 -13 118 -26 129 -28z m1370 -4 c-15
-28 -28 -51 -31 -51 -3 0 7 25 22 55 15 30 29 53 31 51 2 -2 -8 -27 -22 -55z
m1522 -8 c12 -10 24 -30 28 -45 6 -27 -4 -40 -158 -203 l-19 -20 7 20 c6 16 1
14 -19 -8 -15 -15 -27 -31 -27 -35 0 -4 7 2 15 12 8 11 15 15 15 10 0 -17 -56
-65 -65 -57 -4 5 -5 3 -2 -3 7 -12 -99 -121 -108 -112 -8 8 211 396 243 431
30 31 61 35 90 10z m399 -5 c-3 -8 -6 -5 -6 6 -1 11 2 17 5 13 3 -3 4 -12 1
-19z m813 -37 c15 -29 12 -37 -6 -15 -8 10 -13 13 -9 7 5 -11 -5 -17 -26 -15
-4 1 -30 -7 -58 -18 -61 -22 -70 -6 -18 34 40 32 101 36 117 7z m-3435 -38
c22 -8 95 -120 95 -144 0 -35 -23 -31 -63 13 -99 107 -92 95 -72 118 21 23 18
22 40 13z m-1207 -17 c50 -26 99 -91 116 -156 7 -24 6 -24 -8 -6 -9 11 -16 17
-16 13 0 -4 -12 -1 -27 7 -16 7 -42 17 -60 21 -28 6 -33 4 -38 -18 l-6 -24
-66 24 c-71 25 -163 35 -170 18 -2 -6 23 -16 54 -23 60 -13 144 -48 178 -76
11 -9 16 -16 10 -15 -26 3 -33 -5 -51 -61 -29 -90 -35 -97 -87 -81 -178 54
-294 61 -383 22 -54 -24 -52 -44 3 -29 21 6 80 10 133 11 79 1 108 -4 169 -26
77 -27 106 -46 84 -54 -7 -3 -13 -10 -14 -16 0 -7 -11 -34 -24 -62 -13 -27
-21 -53 -19 -57 7 -11 -10 -10 -21 0 -20 18 -122 33 -194 30 -107 -4 -103 -23
6 -31 82 -6 228 -45 175 -46 -13 -1 -21 -5 -18 -10 3 -5 -1 -31 -9 -57 -35
-114 -31 -232 12 -321 19 -40 37 -33 28 10 -6 30 -6 31 8 13 14 -18 15 -17 27
20 7 21 35 84 63 139 44 86 64 113 147 195 97 96 174 150 252 177 24 8 59 30
78 48 19 19 48 39 63 44 82 31 179 -6 216 -83 26 -52 40 -146 22 -146 -6 0
-11 9 -11 20 0 21 -26 80 -35 80 -3 0 -4 -3 -4 -7 4 -25 -3 -43 -16 -43 -8 0
-15 -6 -15 -12 0 -7 -6 -4 -12 7 -37 69 -117 117 -158 95 -21 -11 -19 -30 4
-30 25 0 92 -69 119 -123 16 -30 40 -65 54 -78 34 -33 45 -63 32 -96 -22 -58
-95 -96 -172 -92 -46 3 -55 0 -79 -24 -31 -31 -82 -36 -114 -12 -26 20 -33 19
-43 -8 -7 -18 -22 -26 -68 -36 -78 -16 -110 -29 -163 -65 -106 -72 -120 -101
-74 -155 l26 -31 -41 0 c-49 0 -141 -33 -198 -71 -43 -28 -43 -28 -44 -6 0 30
-41 109 -58 115 -8 3 -11 0 -7 -6 7 -12 -46 -27 -81 -23 -32 3 -48 -8 -30 -22
23 -19 51 -67 38 -67 -6 0 -11 5 -11 10 0 6 -5 10 -11 10 -5 0 -7 -4 -4 -10 3
-5 -3 -11 -14 -11 -12 -1 -26 -2 -33 -3 -6 0 -17 -23 -23 -51 -6 -27 -19 -63
-29 -80 -9 -16 -15 -22 -12 -13 6 20 -9 34 -47 43 -15 4 -27 11 -27 16 0 21
-17 7 -33 -27 -21 -43 -85 -130 -121 -163 l-26 -24 -39 31 c-44 35 -51 38 -51
20 0 -7 -23 -28 -50 -45 -49 -32 -50 -33 -61 -12 -11 21 -11 21 -38 -5 -21
-20 -53 -32 -132 -50 -92 -20 -105 -26 -117 -50 -11 -22 -11 -30 0 -43 11 -15
11 -16 -5 -10 -14 5 -16 3 -8 -12 9 -16 7 -18 -15 -15 -14 1 -36 9 -48 18 -23
14 -24 14 -19 -7 4 -22 4 -22 -12 -2 -12 15 -16 34 -13 76 3 46 11 66 42 109
l38 53 -32 64 c-26 50 -31 70 -27 100 13 80 79 128 162 118 28 -3 55 -6 60 -6
6 0 42 11 80 26 92 35 204 56 530 100 360 48 335 39 240 85 -81 39 -98 53 -31
25 46 -20 46 -14 -2 18 -21 13 -60 43 -86 66 -26 23 -55 41 -64 40 -14 0 -14
-2 -2 -6 8 -4 27 -18 43 -33 l28 -26 -65 4 c-48 3 -72 0 -90 -11 -22 -15 -20
-6 26 115 33 88 47 140 43 156 -8 33 -28 15 -45 -40 -7 -24 -32 -83 -57 -131
l-44 -88 -59 2 c-33 1 -60 3 -60 5 0 1 20 56 45 122 65 175 89 251 80 260 -11
11 -35 -30 -86 -147 -25 -58 -60 -137 -77 -174 l-31 -69 -58 7 c-32 4 -60 9
-61 11 -2 1 19 52 46 112 28 60 60 140 71 177 22 71 28 145 11 145 -5 0 -10
-7 -10 -15 0 -43 -164 -403 -175 -385 -3 5 -16 10 -28 10 -29 1 -106 36 -133
61 l-22 20 -21 -27 c-11 -15 -21 -33 -21 -41 0 -8 -4 -11 -10 -8 -12 7 -14
-26 -2 -41 4 -5 -5 3 -20 18 -32 32 -52 98 -43 138 14 65 91 119 167 120 39 0
41 1 100 93 18 28 49 58 77 75 39 23 56 27 116 26 86 -2 151 -26 231 -84 119
-88 191 -179 283 -355 51 -96 80 -140 88 -131 8 8 -42 155 -94 275 -112 258
-153 388 -153 488 0 47 36 120 70 145 28 20 85 26 146 15 39 -8 44 -6 110 44
37 29 84 61 104 70 43 22 150 25 188 5z m3036 8 c27 -10 18 -34 -40 -100 -58
-66 -84 -79 -84 -44 0 26 35 98 63 128 21 23 34 26 61 16z m886 -28 c0 -7 -15
-33 -34 -57 -18 -25 -43 -63 -55 -84 -24 -44 -26 -31 -10 47 7 33 22 62 39 80
30 30 60 37 60 14z m-5103 -43 c47 -22 83 -82 83 -141 0 -91 -66 -152 -164
-152 -63 0 -108 28 -135 84 -26 53 -26 88 -1 142 41 84 124 110 217 67z m343
-38 c23 -12 30 -22 30 -45 0 -39 -39 -67 -69 -50 -51 27 -46 95 7 109 2 1 16
-6 32 -14z m6369 -9 c32 -17 59 -46 43 -46 -6 0 -13 4 -16 9 -5 7 -29 8 -74 3
-7 -1 -10 -7 -7 -12 4 -6 16 -8 27 -4 14 4 18 2 14 -5 -4 -6 -16 -11 -26 -11
-10 0 -26 -7 -34 -16 -9 -8 -16 -11 -16 -5 0 5 7 14 16 19 12 7 13 11 5 17 -7
4 -21 -2 -32 -14 -10 -11 -25 -18 -33 -15 -9 4 -24 -12 -42 -45 -16 -27 -32
-47 -36 -45 -4 3 -8 -2 -8 -10 0 -9 -4 -16 -10 -16 -17 0 -11 72 9 116 17 38
54 73 91 87 29 11 101 7 129 -7z m-891 -12 c28 -20 30 -69 3 -84 -28 -14 -52
-12 -73 7 -25 23 -22 48 8 72 32 25 33 25 62 5z m-3817 -31 c13 -16 12 -17 -3
-4 -10 7 -18 15 -18 17 0 8 8 3 21 -13z m2792 -24 c12 -19 -1 -37 -40 -57 -33
-18 -38 -14 -12 8 21 17 17 17 -33 -5 -32 -14 -91 -42 -130 -62 -40 -21 -82
-41 -93 -45 -33 -13 51 57 148 122 94 64 138 75 160 39z m-1858 -101 c116 -29
255 -145 319 -268 20 -37 36 -75 36 -83 0 -35 20 -25 31 15 20 76 60 141 128
209 96 95 200 139 331 139 108 0 198 -55 234 -142 20 -47 20 -105 1 -138 l-15
-25 6 30 c4 25 3 27 -6 12 -6 -9 -15 -15 -20 -12 -5 3 -27 -3 -48 -14 -54 -27
-140 -31 -158 -6 -19 25 -18 64 3 87 24 27 49 22 63 -13 9 -22 18 -29 34 -27
17 2 22 11 24 45 6 88 -88 126 -218 87 -86 -25 -194 -105 -225 -165 -8 -15
-20 -33 -28 -41 -7 -7 -23 -40 -35 -73 -44 -124 -54 -192 -62 -430 -3 -126 -8
-210 -10 -185 l-3 45 -7 -45 c-4 -25 -8 -37 -8 -27 -1 10 -6 15 -12 12 -7 -4
-10 51 -10 157 0 321 -37 478 -143 610 -42 52 -139 121 -200 142 -95 32 -195
16 -231 -36 -22 -31 -20 -81 3 -102 20 -18 33 -10 45 31 10 32 34 36 61 9 21
-21 23 -29 15 -56 -12 -41 -39 -72 -57 -65 -8 2 -11 0 -8 -5 3 -5 -7 -12 -22
-16 -15 -3 -34 -8 -42 -10 -24 -8 -99 36 -121 70 -42 68 -16 188 51 238 87 65
175 78 304 46z m3299 -100 c8 -14 6 -21 -9 -33 -27 -20 -49 -15 -53 14 -6 40
40 54 62 19z m-244 -19 c0 -10 -52 -103 -66 -118 -2 -2 -10 2 -19 9 -12 10
-15 10 -15 -3 0 -8 5 -17 12 -19 19 -7 0 -58 -28 -70 -13 -6 -23 -17 -20 -24
7 -19 -5 -24 -26 -13 -14 8 -23 8 -31 0 -6 -6 -15 -11 -19 -11 -13 0 -9 73 8
129 16 56 14 67 -10 58 -30 -12 -59 -89 -65 -177 l-7 -85 -12 53 c-7 29 -12
66 -12 82 0 17 -5 30 -11 30 -7 0 -18 8 -26 18 -9 10 -12 11 -7 2 6 -12 4 -13
-7 -2 -18 17 4 40 23 24 11 -8 14 -6 14 11 0 12 -4 25 -9 28 -11 8 -57 -37
-57 -56 0 -8 -4 -16 -9 -20 -5 -3 -12 -18 -16 -33 -4 -18 -13 -28 -25 -29 -23
-2 -27 12 -5 21 24 9 18 43 -9 48 -17 4 -23 1 -19 -9 3 -7 10 -13 15 -13 6 0
5 -7 -2 -15 -10 -12 -15 -13 -21 -3 -4 6 -5 16 -3 20 3 4 0 8 -6 8 -7 0 -10
-7 -6 -15 3 -8 1 -15 -4 -15 -6 0 -10 -7 -10 -15 0 -9 7 -13 18 -9 9 2 7 -1
-6 -7 -22 -12 -23 -16 -16 -78 4 -36 11 -77 16 -90 18 -49 0 -29 -26 29 -34
76 -51 155 -42 201 9 48 66 113 118 134 61 25 142 23 205 -5 51 -22 54 -22 80
-4 55 35 163 57 163 33z m108 -31 c-2 -27 -7 -32 -23 -30 -11 2 -24 7 -28 12
-14 13 12 50 34 50 17 0 20 -5 17 -32z m-4016 -55 c24 -21 23 -55 -2 -78 -44
-39 -108 21 -75 71 18 28 51 31 77 7z m4108 -23 c0 -30 -24 -51 -47 -43 -28
10 -4 73 27 73 15 0 20 -7 20 -30z m-1605 -4 c26 -26 25 -50 -4 -73 -22 -17
-41 -16 -63 4 -25 22 -23 59 4 77 30 21 35 20 63 -8z m1457 -11 c13 -30 -1
-52 -27 -42 -22 9 -29 35 -15 52 18 21 29 19 42 -10z m265 9 c6 -16 -12 -34
-34 -34 -7 0 -13 11 -13 25 0 18 5 25 20 25 11 0 23 -7 27 -16z m-1150 -56
c101 -37 188 -126 253 -256 16 -33 30 -64 30 -67 0 -4 -26 27 -59 67 -91 113
-158 168 -240 196 -28 10 -38 10 -49 -2 -11 -11 -12 -18 -2 -36 6 -12 8 -25 4
-28 -4 -4 -9 -2 -11 5 -2 7 -11 9 -19 6 -9 -3 -14 1 -14 13 0 16 -2 17 -10 4
-5 -8 -21 -15 -35 -15 -27 -1 -31 5 -14 22 8 8 8 13 0 17 -6 4 -11 3 -11 -2 0
-15 -41 -53 -51 -47 -11 8 -12 -5 0 -23 4 -7 14 -12 22 -10 8 2 13 -3 12 -9
-2 -7 2 -13 7 -13 6 0 10 -4 10 -10 0 -5 -9 -10 -20 -10 -11 0 -20 5 -20 10 0
6 -5 10 -11 10 -5 0 -7 -4 -4 -10 4 -6 -16 -8 -52 -5 -39 3 -53 1 -43 -5 13
-8 13 -10 0 -10 -31 0 15 -28 85 -50 119 -38 238 -106 312 -176 38 -36 55 -57
40 -48 -119 72 -238 131 -323 160 -68 22 -106 25 -79 6 6 -4 16 -15 24 -24 12
-16 11 -18 -13 -18 -21 0 -26 5 -26 24 0 37 -30 42 -57 9 -22 -27 -23 -28 -38
-9 -8 11 -15 15 -15 9 0 -6 7 -16 15 -23 19 -16 20 -44 1 -37 -9 4 -17 -1 -21
-12 -4 -13 -13 -16 -35 -13 -17 2 -33 8 -36 13 -11 18 -21 8 -32 -30 -7 -21
-18 -44 -26 -50 -12 -10 -15 -6 -21 19 -21 93 50 201 146 225 23 6 28 14 38
65 33 166 201 238 388 168z m-2858 -15 c20 -60 35 -75 85 -80 51 -6 58 -18 21
-35 -14 -6 -25 -14 -25 -17 0 -4 -10 -7 -22 -8 -28 -2 -70 -33 -84 -62 -16
-30 -34 -49 -34 -34 0 6 6 13 13 16 6 2 10 7 7 10 -10 11 -31 -10 -33 -31 0
-12 -7 -24 -14 -26 -9 -4 -11 9 -8 50 l4 55 -44 27 c-24 15 -45 30 -45 34 0 4
17 10 38 13 58 10 58 10 86 69 15 31 30 56 35 56 4 0 13 -17 20 -37z m734 6
c53 -35 117 -124 144 -201 11 -34 18 -82 18 -135 0 -46 4 -76 8 -70 5 7 6 3 1
-8 -7 -19 -21 -219 -23 -327 -1 -41 -4 -48 -21 -48 -19 0 -20 7 -20 169 0 93
-5 205 -10 248 -14 98 -55 187 -114 241 -24 22 -41 44 -38 48 4 4 1 4 -6 0
-20 -12 -62 21 -62 49 0 29 32 65 58 65 10 0 39 -14 65 -31z m615 14 c39 -34
36 -57 -10 -97 -148 -128 -167 -185 -169 -511 -1 -99 -5 -162 -8 -140 -5 31
-8 36 -14 22 -4 -11 -4 -24 0 -29 3 -7 1 -8 -5 -4 -8 5 -12 -2 -12 -18 0 -19
-5 -26 -20 -26 -19 0 -20 7 -20 241 0 260 8 315 56 411 29 57 86 123 129 150
37 22 48 23 73 1z m687 -23 c11 -51 42 -80 85 -80 21 0 41 -4 44 -8 5 -9 -67
-47 -107 -56 -19 -5 -33 -17 -42 -39 -8 -18 -30 -45 -51 -61 l-36 -29 7 59 6
59 -40 25 c-22 14 -41 30 -41 36 0 6 21 15 47 20 38 7 50 15 62 39 43 84 54
90 66 35z m1270 20 c3 -5 1 -10 -4 -10 -6 0 -11 5 -11 10 0 6 2 10 4 10 3 0 8
-4 11 -10z m532 -18 c16 -26 -48 -165 -74 -160 -30 6 -27 50 7 92 16 21 30 46
30 56 0 33 20 39 37 12z m-152 -36 c16 -12 17 -16 6 -30 -17 -20 -50 -21 -57
-1 -6 15 11 45 25 45 4 0 16 -6 26 -14z m273 -13 c4 -25 -9 -29 -39 -13 -30
17 -24 42 9 38 19 -2 28 -9 30 -25z m-1124 -35 c-6 -20 11 -25 19 -5 4 9 8 9
16 -3 15 -22 3 -30 -29 -18 -17 5 -27 14 -24 19 3 5 0 9 -6 9 -6 0 -9 4 -6 8
3 5 12 9 21 9 10 0 13 -6 9 -19z m1584 6 c26 -18 28 -50 5 -76 -31 -35 -83
-12 -83 37 0 20 32 55 50 55 3 0 16 -7 28 -16z m-867 -17 c-10 -9 -11 -8 -5 6
3 10 9 15 12 12 3 -3 0 -11 -7 -18z m85 -41 c15 -12 17 -18 8 -33 -24 -38 -67
-10 -50 33 7 18 17 18 42 0z m274 -6 c20 -37 -9 -53 -45 -26 -16 12 -17 16 -6
30 18 22 38 20 51 -4z m-165 -31 c11 -16 -3 -56 -22 -63 -27 -11 -37 9 -23 43
12 31 33 40 45 20z m-4140 -55 c0 -21 -1 -21 -17 -7 -19 17 -17 30 4 30 7 0
13 -11 13 -23z m30 7 c3 -5 1 -12 -5 -16 -5 -3 -10 1 -10 9 0 18 6 21 15 7z
m943 -3 c16 -16 15 -63 -1 -77 -54 -44 -120 8 -87 70 12 22 68 27 88 7z m922
-7 c17 -32 11 -60 -15 -77 -49 -32 -104 23 -75 75 15 28 75 29 90 2z m2354
-29 c-16 -25 -38 -21 -42 7 -5 30 18 45 38 25 11 -11 12 -19 4 -32z m-208 -92
c-14 -28 -19 -47 -12 -40 8 6 19 24 26 40 7 16 16 27 21 24 5 -3 6 1 3 9 -3 8
2 14 11 14 8 0 15 -2 15 -3 0 -13 -185 -324 -192 -324 -5 0 -7 -4 -4 -8 6 -10
-107 -209 -134 -237 -20 -19 -20 -19 -11 13 5 17 12 37 16 44 4 7 -1 4 -9 -6
-9 -11 -16 -26 -16 -33 0 -7 -9 -13 -20 -13 -11 0 -20 7 -20 16 0 8 43 90 97
182 53 92 125 219 161 282 35 63 69 121 76 129 23 29 18 -36 -8 -89z m690 29
c26 -7 62 -27 87 -49 l42 -38 -55 19 c-36 12 -84 18 -137 19 -93 0 -136 -11
-127 -35 3 -8 1 -15 -5 -15 -6 0 -11 7 -11 15 0 21 -15 19 -102 -15 -105 -40
-167 -73 -206 -109 -18 -17 -38 -31 -43 -31 -14 0 93 98 145 133 141 96 294
135 412 106z m-4172 -40 c14 -11 26 -24 26 -27 0 -11 -93 -57 -108 -54 -9 2
-11 -1 -6 -10 6 -10 4 -10 -9 1 -12 9 -17 10 -17 2 0 -7 -4 -10 -9 -7 -5 4
-11 0 -14 -6 -7 -20 -19 -2 -19 27 0 32 36 73 76 84 46 14 51 13 80 -10z
m1796 -6 c27 -15 50 -51 50 -75 0 -7 -7 -3 -15 8 -12 16 -16 17 -24 4 -5 -8
-8 -17 -5 -21 6 -10 -125 46 -137 58 -16 16 29 43 69 43 19 0 47 -7 62 -17z
m417 -48 c8 -8 13 -20 11 -26 -4 -13 -38 16 -38 32 0 13 9 11 27 -6z m73 -5
c0 -5 -4 -10 -10 -10 -5 0 -10 5 -10 10 0 6 5 10 10 10 6 0 10 -4 10 -10z
m1670 1 c0 -5 -9 -11 -20 -14 -11 -3 -20 -1 -20 3 0 5 8 11 18 13 9 3 18 5 20
6 1 0 2 -3 2 -8z m-1600 -15 c0 -3 -4 -8 -10 -11 -5 -3 -10 -1 -10 4 0 6 5 11
10 11 6 0 10 -2 10 -4z m-1790 -71 c0 -24 -5 -35 -15 -35 -20 0 -19 -16 1 -24
26 -10 11 -17 -47 -22 -121 -12 -328 -45 -394 -63 -52 -14 -65 -16 -51 -5 11
8 15 14 9 14 -6 0 -25 -17 -43 -37 -31 -35 -32 -39 -27 -107 5 -72 58 -586
103 -1001 13 -126 33 -320 44 -430 12 -110 31 -297 45 -415 13 -118 36 -330
50 -470 15 -140 31 -269 36 -287 30 -96 170 -151 440 -173 82 -7 166 -7 256 0
227 17 341 49 408 114 50 49 42 5 95 501 62 585 129 1201 140 1290 5 44 25
238 45 430 19 193 40 382 46 422 7 47 7 78 1 90 -12 21 -52 59 -58 55 -3 -2
-45 6 -96 18 -94 22 -302 50 -375 50 -49 0 -52 4 -60 70 l-6 50 54 0 c75 0
295 -27 382 -46 184 -42 266 -122 253 -248 -4 -28 -20 -181 -36 -341 -29 -277
-45 -423 -90 -815 -11 -96 -29 -265 -40 -375 -27 -261 -75 -715 -100 -935 -25
-211 -45 -264 -123 -317 -97 -66 -274 -102 -527 -108 -363 -9 -612 62 -680
195 -17 34 -36 172 -65 480 -3 30 -16 159 -30 285 -14 127 -43 403 -65 615
-23 212 -61 567 -85 790 -54 504 -59 560 -51 605 9 48 65 108 124 133 80 34
339 79 470 81 l62 1 0 -35z m2120 -40 c45 -29 66 -55 24 -31 -16 9 -47 22 -68
29 -22 8 -42 20 -44 27 -6 18 40 5 88 -25z m1487 -36 c35 -6 63 -15 63 -20 0
-5 -62 -9 -137 -9 -79 0 -166 -6 -203 -14 -73 -16 -210 -61 -252 -82 -49 -25
-30 -5 33 36 132 85 322 119 496 89z m-5014 -16 c-7 -2 -21 -2 -30 0 -10 3 -4
5 12 5 17 0 24 -2 18 -5z m3439 -64 c45 -10 262 -108 254 -116 -1 -1 -27 7
-57 19 -250 96 -452 69 -454 -61 0 -30 -3 -37 -12 -29 -7 6 -13 30 -13 54 0
36 6 51 33 80 54 59 136 76 249 53z m-2032 -18 c0 -16 -9 -21 -47 -26 -77 -10
-81 -13 -25 -14 92 -2 56 -18 -60 -26 -62 -4 -131 -8 -154 -8 -42 0 -148 22
-141 29 7 7 201 44 277 53 130 15 150 14 150 -8z m700 9 c117 -11 274 -37 299
-50 14 -8 -39 -24 -120 -35 -35 -5 -52 -2 -80 13 -18 11 -63 23 -99 27 -36 3
-78 9 -95 12 -25 5 -28 3 -18 -9 10 -11 8 -14 -8 -14 -10 0 -19 5 -19 11 0 5
-3 20 -6 33 -7 26 -12 26 146 12z m-2626 -16 c11 -4 79 -113 91 -145 5 -14 -6
-17 -67 -22 -99 -8 -197 -40 -254 -83 -44 -34 -46 -34 -41 -12 3 12 1 43 -4
68 -6 25 -10 55 -10 68 1 15 -3 21 -11 16 -7 -4 -2 7 11 24 51 73 204 118 285
86z m2611 -44 c18 -8 18 -9 -5 -9 -14 0 -32 4 -40 9 -12 8 -12 10 5 9 11 0 29
-4 40 -9z m-389 -34 c2 -13 1 -13 -3 -1 -5 17 -23 21 -23 5 0 -5 -4 -10 -10
-10 -5 0 -10 9 -10 20 0 16 4 18 23 11 12 -5 23 -16 23 -25z m1654 13 c0 -6
-4 -7 -10 -4 -5 3 -10 11 -10 16 0 6 5 7 10 4 6 -3 10 -11 10 -16z m1643 -9
c114 -35 94 -58 -30 -34 -113 22 -309 20 -400 -4 -40 -11 -73 -18 -73 -15 0
10 111 53 175 67 90 20 238 14 328 -14z m-1653 -16 c0 -2 -7 -4 -15 -4 -8 0
-15 4 -15 10 0 5 7 7 15 4 8 -4 15 -8 15 -10z m-2735 -14 c41 -46 -20 -105
-66 -64 -23 21 -24 47 -3 68 21 22 47 20 69 -4z m445 -30 c178 -35 452 -53
720 -47 280 6 420 19 573 52 96 20 107 21 103 6 -2 -9 -7 -47 -11 -84 -5 -48
-10 -67 -19 -64 -7 3 -46 10 -88 17 -59 10 -155 10 -424 2 -213 -7 -394 -7
-464 -2 -216 17 -323 12 -496 -20 -1 0 -4 31 -8 69 -3 38 -9 77 -13 87 -5 14
-3 16 13 10 10 -4 62 -16 114 -26z m-685 -22 c4 -18 22 -66 41 -106 32 -72 33
-75 18 -105 -16 -31 -66 -97 -111 -147 -16 -18 -23 -20 -24 -10 0 8 -7 2 -14
-15 -14 -29 -14 -27 -14 40 -1 39 6 97 13 130 8 33 17 85 21 115 l6 55 -19
-29 c-11 -15 -28 -48 -38 -72 -10 -24 -23 -43 -29 -41 -5 2 -19 20 -30 40
l-20 36 35 37 c39 40 128 104 147 104 6 0 15 -15 18 -32z m2551 -9 c26 -59 39
-69 89 -69 24 0 47 -4 50 -10 3 -5 -1 -10 -10 -10 -21 0 -118 -55 -140 -80
-10 -11 -22 -17 -26 -14 -5 3 -9 0 -9 -6 0 -6 -4 -9 -9 -5 -11 6 -25 -30 -17
-44 3 -5 -2 -15 -11 -22 -14 -12 -16 -12 -9 0 5 7 9 31 10 53 2 32 -2 43 -21
56 -63 45 -69 51 -53 62 8 5 27 10 42 10 30 0 49 22 68 83 6 20 15 37 19 37 4
0 16 -19 27 -41z m638 -18 c3 -5 -18 -15 -47 -21 -64 -16 -133 -49 -170 -84
-30 -28 -66 -98 -67 -131 -1 -17 -3 -16 -11 5 -35 85 45 192 171 231 35 10
118 11 124 0z m406 -68 c148 -74 275 -212 325 -353 8 -24 14 -45 12 -47 -2 -1
-19 21 -37 50 -46 71 -152 176 -228 225 -80 52 -196 79 -244 58 -11 -5 -18 -4
-18 3 0 16 55 41 91 41 28 0 30 2 18 16 -10 13 -27 15 -79 12 -75 -4 -149 -36
-186 -82 -14 -15 -27 -26 -30 -23 -13 13 9 66 40 96 80 78 187 79 336 4z m850
17 c51 -14 155 -64 165 -80 9 -14 7 -14 -92 20 -106 37 -235 69 -283 71 l-35
2 40 6 c47 7 142 -1 205 -19z m-5232 14 c26 -5 34 -14 47 -54 18 -54 27 -112
16 -106 -4 3 -38 1 -76 -5 -89 -12 -163 -52 -173 -92 l-8 -30 -59 56 c-74 68
-104 119 -85 142 54 65 229 111 338 89z m602 -154 c23 -48 31 -73 23 -78 -6
-4 -14 -30 -17 -58 -5 -34 -12 -51 -22 -51 -25 0 -104 93 -104 122 0 39 62
151 78 141 4 -2 23 -36 42 -76z m4462 37 c90 -29 162 -72 212 -128 52 -57 44
-66 -16 -18 -99 78 -222 129 -363 150 -121 18 -126 31 -10 25 68 -3 125 -12
177 -29z m-3234 7 c29 -3 50 -9 47 -14 -7 -11 -235 -6 -290 6 l-40 9 60 5 c60
6 124 4 223 -6z m792 7 c25 -1 31 -4 23 -12 -6 -6 -33 -10 -62 -8 -28 2 -51 1
-51 -2 0 -4 -48 -7 -107 -7 -130 0 -119 18 16 26 47 2 87 5 88 6 1 1 15 1 30
0 15 -1 44 -3 63 -3z m2118 -74 c80 -38 157 -107 172 -153 7 -19 9 -38 6 -41
-3 -4 0 -13 7 -22 27 -33 -29 14 -73 62 -24 26 -85 79 -137 118 -51 38 -93 72
-93 74 0 10 55 -8 118 -38z m192 21 c0 -5 -4 -7 -9 -4 -5 4 -12 0 -14 -6 -3
-7 -6 -3 -6 9 -1 16 3 21 14 17 8 -4 15 -10 15 -16z m-3400 -33 c331 -63 859
-61 1179 6 52 10 101 19 108 19 19 0 13 -52 -7 -57 -13 -4 -13 -3 0 6 13 10
13 11 0 11 -8 0 -25 -11 -37 -24 -21 -21 -89 -39 -203 -52 -14 -1 -77 -9 -140
-18 -63 -8 -154 -18 -202 -22 l-88 -7 -1 -236 c-1 -130 -2 -240 -3 -246 -1 -5
-16 -32 -33 -59 -55 -83 -52 -141 6 -152 l28 -6 2 -124 c2 -100 -2 -136 -18
-190 -12 -36 -21 -75 -21 -87 0 -18 1 -19 18 -4 16 15 17 4 17 -221 0 -130 -1
-344 -2 -474 l-3 -238 -82 0 c-155 0 -321 25 -404 61 l-41 17 -7 74 c-7 76
-43 405 -77 713 -11 99 -35 329 -54 510 -20 182 -45 416 -56 520 -11 105 -23
220 -26 258 l-6 67 34 -14 c19 -8 73 -22 119 -31z m-622 -10 c24 -52 8 -102
-55 -171 -46 -49 -103 -121 -103 -129 0 -3 30 25 66 62 43 44 58 55 43 33 -13
-19 -55 -66 -94 -104 l-70 -68 -7 72 -8 73 65 64 c36 36 82 94 102 129 21 35
40 64 44 64 3 0 11 -11 17 -25z m-2293 -5 c3 -5 -1 -10 -9 -10 -9 0 -16 5 -16
10 0 6 4 10 9 10 6 0 13 -4 16 -10z m6285 -5 c11 -13 10 -14 -4 -9 -9 3 -16
10 -16 15 0 13 6 11 20 -6z m-4895 -3 c20 -14 45 -62 45 -86 0 -34 -61 -86
-102 -86 -57 0 -140 75 -125 114 3 8 41 26 84 40 90 29 85 28 98 18z m4478
-49 c10 -18 17 -45 15 -60 -3 -26 -6 -22 -36 35 -28 53 -30 63 -16 60 10 -2
26 -18 37 -35z m-3883 -210 c0 -32 -4 -43 -15 -43 -9 0 -18 7 -21 15 -10 26
-21 16 -16 -15 3 -20 0 -30 -8 -30 -18 0 -119 79 -132 103 -12 23 -5 63 22
124 l20 45 75 -78 c69 -73 75 -82 75 -121z m360 36 c0 -11 -4 -17 -10 -14 -5
3 -10 1 -10 -4 0 -6 6 -11 13 -11 9 0 9 -2 -1 -9 -7 -4 -12 -12 -10 -17 6 -22
-24 -75 -66 -118 -45 -45 -58 -64 -33 -50 6 4 -15 -21 -47 -54 -33 -34 -61
-60 -63 -58 -2 1 -7 24 -12 51 l-9 48 72 76 c40 42 91 102 115 133 43 57 61
65 61 27z m2373 -2 c86 -40 137 -81 137 -110 1 -65 40 -98 40 -34 l1 32 29
-35 c17 -19 30 -40 30 -47 0 -11 -96 -161 -117 -183 -11 -12 -23 31 -23 88 0
36 -8 86 -19 117 -11 30 -17 55 -13 55 3 0 -11 16 -33 35 -21 20 -42 32 -47
27 -5 -5 1 -30 14 -58 18 -39 22 -66 22 -134 -1 -71 -7 -171 -13 -190 -1 -3
-16 24 -34 60 -17 36 -53 87 -79 114 l-46 48 14 57 c19 74 57 191 62 191 2 0
36 -15 75 -33z m544 -24 c-3 -5 16 -7 41 -5 32 2 42 0 33 -6 -11 -8 -11 -10 0
-14 9 -4 3 -12 -18 -24 -42 -24 -42 -35 -1 -23 17 5 34 6 37 4 2 -3 -1 -5 -9
-5 -10 0 -10 -3 0 -15 10 -12 10 -15 -4 -15 -9 0 -16 -4 -16 -9 0 -23 -177
-47 -197 -27 -11 11 37 94 69 122 27 22 76 35 65 17z m377 -39 c4 -15 10 -24
13 -20 4 3 13 -8 20 -25 16 -37 17 -52 3 -44 -12 8 -3 -19 23 -62 20 -35 17
-79 -10 -120 l-15 -22 -24 26 c-13 14 -26 35 -30 47 -7 21 -7 21 -14 1 -9 -23
-12 4 -11 121 0 102 29 164 45 98z m-3838 -15 c16 -17 64 -56 107 -86 42 -30
77 -60 77 -66 0 -7 -4 -6 -10 3 -6 9 -10 10 -10 3 0 -7 8 -17 18 -22 9 -6 11
-11 5 -11 -7 0 -13 -10 -13 -23 0 -13 -6 -29 -12 -36 -11 -11 -10 -12 2 -6 11
6 12 5 4 -4 -17 -18 -57 -4 -137 49 -98 64 -101 68 -93 141 12 101 17 105 62
58z m5086 -56 c25 -22 23 -59 -4 -77 -29 -20 -47 -20 -70 1 -22 20 -23 51 -1
75 20 22 51 23 75 1z m-6734 -71 c16 -22 15 -42 -5 -64 -32 -35 -93 -13 -93
35 0 50 66 70 98 29z m2132 24 c0 -2 -7 -9 -15 -16 -13 -11 -14 -10 -9 4 5 14
24 23 24 12z m73 -31 c-3 -9 -8 -14 -10 -11 -3 3 -2 9 2 15 9 16 15 13 8 -4z
m3472 6 c-3 -5 3 -12 14 -16 11 -3 25 -13 33 -22 11 -14 11 -16 -1 -8 -9 5
-12 4 -7 -3 4 -6 12 -9 19 -7 14 5 53 -22 44 -31 -11 -11 17 -31 38 -27 11 2
14 1 7 -3 -6 -3 -10 -10 -6 -15 13 -21 -46 -6 -85 21 -62 45 -103 120 -65 120
8 0 13 -4 9 -9z m-3495 -39 c0 -4 -5 -13 -12 -20 -7 -7 -8 -12 -4 -12 18 0
-98 -125 -136 -148 -16 -9 -28 -25 -29 -37 0 -14 -3 -11 -10 10 -9 29 -5 34
83 121 91 89 108 102 108 86z m-1559 -24 c9 -7 24 -35 34 -62 16 -45 85 -155
147 -236 l27 -35 -42 -3 c-22 -1 -47 -7 -53 -13 -29 -24 -337 312 -310 338 6
6 99 20 147 22 19 0 42 -5 50 -11z m3831 -41 c63 -107 86 -263 49 -332 l-19
-35 -7 36 c-12 67 -45 140 -81 183 -39 45 -39 41 -8 149 9 32 20 52 27 49 6
-2 24 -24 39 -50z m-3594 8 c45 -16 106 -42 135 -59 l52 -31 0 -67 c0 -66 -1
-68 -43 -111 -23 -24 -39 -46 -36 -50 4 -4 2 -7 -4 -7 -25 0 -222 234 -273
323 l-22 40 54 -5 c30 -4 91 -18 137 -33z m790 -17 c32 -24 90 -59 129 -78 74
-35 86 -50 99 -116 l7 -37 -41 6 c-22 4 -48 10 -58 14 -13 5 -15 3 -9 -7 6
-10 4 -12 -11 -6 -48 18 -146 79 -159 99 -15 23 -33 167 -21 167 3 0 32 -19
64 -42z m-1260 1 c41 -75 113 -178 162 -234 101 -113 98 -100 28 -97 -47 3
-59 1 -52 -9 13 -22 -109 69 -166 123 -30 29 -79 82 -108 117 -49 59 -52 65
-35 75 20 11 134 55 146 55 4 1 16 -13 25 -30z m4800 -5 c16 -11 22 -24 20
-42 -2 -15 -7 -27 -13 -27 -24 -2 -55 -17 -50 -26 3 -5 0 -6 -8 -3 -21 8 -40
49 -33 71 5 17 36 40 56 42 3 1 16 -6 28 -15z m282 -12 c0 -15 -2 -15 -10 -2
-13 20 -13 33 0 25 6 -3 10 -14 10 -23z m-3309 -45 c-10 -9 -11 -8 -5 6 3 10
9 15 12 12 3 -3 0 -11 -7 -18z m-1955 -59 c26 -40 81 -108 122 -150 42 -43 73
-80 70 -84 -3 -3 -50 3 -104 13 l-99 17 -85 80 c-88 82 -106 103 -96 113 5 5
137 81 143 83 1 0 23 -33 49 -72z m1234 40 c14 -26 14 -29 -13 -55 -26 -27
-29 -27 -55 -13 -30 17 -41 62 -21 86 20 24 71 14 89 -18z m3342 10 c-7 -7
-12 -8 -12 -2 0 14 12 26 19 19 2 -3 -1 -11 -7 -17z m1236 10 c16 -16 16 -42
0 -32 -8 5 -9 2 -5 -9 3 -9 1 -19 -5 -23 -7 -4 -8 -3 -4 4 10 16 -4 15 -23 -1
-9 -8 -54 -40 -101 -73 -93 -64 -91 -57 15 64 69 80 97 96 123 70z m655 -27
c26 -10 48 -58 42 -90 -10 -51 -38 -79 -91 -91 -78 -18 -128 32 -104 104 22
68 88 101 153 77z m-1906 -21 c1 -11 -3 -19 -10 -17 -6 1 -20 -16 -31 -38 -12
-22 -24 -41 -28 -43 -16 -7 -7 -24 9 -18 23 9 16 3 -32 -29 -22 -15 -35 -22
-28 -15 6 7 9 18 6 26 -2 7 0 21 6 31 6 11 11 13 11 5 0 -7 5 -10 10 -7 6 4 9
12 8 18 -3 12 62 106 72 107 3 0 6 -9 7 -20z m-3621 -26 c39 -28 92 -109 100
-154 5 -24 4 -31 -5 -26 -6 4 -9 11 -6 16 3 5 1 20 -5 35 -9 24 -12 25 -27 14
-15 -13 -15 -12 -4 9 10 18 9 22 -3 22 -8 0 -16 -5 -18 -12 -2 -6 -11 -12 -20
-14 -11 -1 -25 17 -42 56 -42 93 -37 103 30 54z m2391 -6 c-3 -8 -6 -5 -6 6
-1 11 2 17 5 13 3 -3 4 -12 1 -19z m2800 -15 c2 -5 -3 -10 -11 -10 -7 0 -30
-7 -49 -16 -46 -22 -97 -32 -97 -20 0 10 69 61 100 74 16 7 51 -10 57 -28z
m-2920 -40 c-3 -10 -5 -2 -5 17 0 19 2 27 5 18 2 -10 2 -26 0 -35z m957 16
c42 -72 77 -253 44 -233 -7 5 -9 2 -6 -7 3 -8 0 -23 -8 -34 -8 -10 -14 -30
-14 -43 0 -13 -6 -30 -14 -37 -12 -12 -14 -4 -18 58 -2 54 -10 85 -31 124 -15
29 -27 62 -27 72 0 26 39 131 49 131 3 0 15 -14 25 -31z m-4394 3 c0 -4 23
-31 50 -61 50 -54 59 -71 39 -71 -19 0 -104 22 -126 32 -17 8 -30 8 -49 -1
-33 -15 -26 -22 51 -50 33 -13 68 -26 79 -30 11 -4 -28 -15 -109 -31 -123 -23
-128 -23 -141 -5 -7 10 -11 23 -7 29 3 6 3 8 -2 4 -8 -8 -61 60 -53 68 10 9
244 123 256 123 6 1 12 -2 12 -7z m2027 -14 c-3 -8 -6 -5 -6 6 -1 11 2 17 5
13 3 -3 4 -12 1 -19z m1529 -9 c3 -6 2 -15 -4 -21 -6 -6 -11 -2 -15 11 -5 22
7 29 19 10z m1219 1 c-3 -5 -12 -10 -18 -10 -7 0 -6 4 3 10 19 12 23 12 15 0z
m101 -104 c-31 -53 -101 -101 -176 -122 -30 -8 -63 -19 -72 -25 -12 -6 -18 -6
-18 1 0 6 -12 2 -27 -7 l-28 -18 30 38 c17 21 75 68 130 104 55 36 118 82 140
100 l40 34 3 -31 c2 -20 -6 -47 -22 -74z m-1337 56 c-5 -2 -7 -7 -5 -11 3 -3
-5 -18 -16 -31 l-20 -25 14 25 c8 14 13 38 12 54 -3 26 -2 27 11 10 7 -11 9
-21 4 -22z m-1779 -35 c36 -19 85 -44 110 -53 25 -10 56 -29 70 -43 14 -13 17
-19 8 -12 -12 9 -18 10 -18 2 0 -6 -18 -11 -44 -11 -25 0 -48 -4 -51 -10 -3
-5 0 -10 7 -11 10 0 10 -2 -1 -6 -11 -5 -11 -7 0 -14 12 -7 11 -9 -1 -9 -56 0
-165 120 -186 205 -7 29 -7 29 17 14 13 -9 53 -32 89 -52z m1676 35 c0 -10 -8
-18 -18 -18 -16 0 -16 2 -1 18 9 10 17 18 17 18 1 0 2 -8 2 -18z m2088 -43
c26 -31 38 -65 14 -41 -17 17 -48 -4 -48 -33 0 -17 6 -25 22 -27 12 -2 23 -9
26 -16 2 -7 -2 -10 -10 -7 -9 4 -22 -10 -36 -37 -60 -114 -132 -191 -220 -237
-95 -48 -125 -65 -141 -80 -21 -19 -27 3 -7 30 8 13 46 50 84 83 165 146 224
245 202 340 -5 22 -7 44 -4 48 3 4 25 8 49 8 36 0 48 -5 69 -31z m-2031 6 c-3
-9 -8 -14 -10 -11 -3 3 -2 9 2 15 9 16 15 13 8 -4z m1851 -31 c22 -56 -26
-150 -132 -256 -36 -38 -69 -68 -73 -68 -4 0 -10 17 -14 38 -3 20 -15 57 -26
80 l-19 44 41 47 c80 95 206 160 223 115z m-4104 -27 c9 3 11 1 5 -4 -5 -4
-13 -12 -16 -16 -3 -4 -11 5 -18 20 -9 23 -9 25 1 12 7 -9 20 -14 28 -12z
m2255 13 c-3 -5 -12 -10 -18 -10 -7 0 -6 4 3 10 19 12 23 12 15 0z m2512 -152
c-72 -71 -107 -133 -107 -190 0 -10 -7 -18 -17 -18 -10 0 -61 -14 -113 -30
-52 -16 -96 -30 -97 -30 -10 0 1 43 22 87 44 95 152 191 255 228 45 16 122 34
128 29 2 -1 -30 -35 -71 -76z m-5724 66 c20 -4 37 -10 37 -15 0 -16 -151 -88
-294 -140 l-78 -29 -19 24 c-10 13 -34 42 -54 66 -19 23 -35 46 -35 50 0 5 26
12 58 16 31 4 91 12 132 19 84 14 195 18 253 9z m3223 -68 c-20 -36 -41 -68
-46 -71 -5 -3 10 28 33 69 23 41 44 73 46 71 2 -2 -13 -33 -33 -69z m2844 58
c82 -18 101 -35 65 -54 -25 -14 -34 -40 -14 -40 7 0 26 9 45 20 22 14 41 19
58 14 32 -8 118 -82 110 -95 -3 -5 -22 -9 -42 -8 -20 1 -91 -12 -157 -29 -93
-25 -157 -34 -289 -42 -92 -6 -170 -9 -173 -6 -2 2 1 23 9 47 14 50 125 174
173 195 41 18 132 17 215 -2z m-4872 -32 c26 -21 62 -49 81 -63 l34 -25 1
-162 c1 -89 0 -162 -1 -162 -2 0 -19 31 -38 70 -34 67 -71 169 -95 258 -12 45
-25 54 -35 22 -12 -38 16 -212 46 -288 31 -80 36 -107 17 -99 -7 2 -24 8 -38
12 -22 7 -23 6 -11 -9 7 -9 11 -16 7 -16 -14 0 -94 35 -120 53 -29 20 -29 21
-23 99 8 105 90 348 117 348 6 0 32 -17 58 -38z m-951 4 c12 3 24 1 27 -5 4
-5 14 -7 24 -4 9 4 -1 -9 -22 -28 -22 -18 -54 -47 -70 -62 -50 -46 -154 -111
-257 -163 l-96 -47 -72 58 c-40 31 -69 61 -64 65 4 5 71 32 148 60 77 29 172
69 210 88 85 43 115 52 136 41 9 -4 25 -6 36 -3z m181 -28 c7 -7 12 -19 12
-27 0 -13 -2 -13 -9 -2 -6 9 -11 10 -15 2 -4 -6 -2 -11 4 -11 7 0 10 -6 7 -14
-3 -8 -1 -17 6 -20 8 -3 9 -7 2 -13 -5 -4 -15 -17 -22 -28 -6 -11 -16 -19 -23
-17 -6 1 -9 -1 -6 -6 8 -14 -202 -196 -296 -256 -25 -17 -28 -16 -90 15 -113
56 -113 55 2 110 122 58 241 136 335 217 39 34 72 61 76 61 3 1 10 -4 17 -11z
m192 -35 c0 -3 -14 -28 -31 -54 -17 -27 -32 -59 -33 -73 -2 -13 -10 -32 -20
-41 -9 -9 -16 -22 -16 -30 0 -7 -11 -20 -25 -29 -14 -9 -24 -24 -23 -33 2 -8
-27 -42 -66 -77 l-68 -61 -98 0 c-81 0 -96 2 -87 13 6 8 63 52 126 100 64 47
163 132 221 189 98 95 120 113 120 96z m4125 -20 c40 -40 47 -131 15 -216 -16
-43 -42 -75 -132 -165 -61 -62 -112 -111 -114 -109 -1 1 -18 51 -37 111 -34
107 -35 110 -20 160 27 94 104 190 177 222 43 18 91 17 111 -3z m-2678 -47
c27 -24 27 -26 13 -53 -11 -20 -25 -29 -47 -31 -61 -6 -79 66 -25 97 24 15 28
14 59 -13z m-624 -22 c72 -38 75 -45 51 -104 -11 -27 -13 -29 -9 -8 3 16 0 30
-7 34 -7 4 -10 4 -7 0 4 -4 1 -31 -7 -59 -8 -29 -14 -76 -14 -104 0 -36 -4
-53 -12 -53 -8 0 -9 -3 -3 -8 6 -4 8 -36 5 -77 l-5 -70 -23 35 c-12 19 -26 51
-31 70 -13 50 -26 380 -14 380 5 0 39 -16 76 -36z m-850 1 c-3 -9 -8 -14 -10
-11 -3 3 -2 9 2 15 9 16 15 13 8 -4z m2543 -23 c-17 -16 -18 -16 -5 5 7 12 15
20 18 17 3 -2 -3 -12 -13 -22z m3337 -101 c32 -60 41 -91 27 -91 -6 0 -8 5 -4
13 6 9 5 9 -7 0 -24 -20 -71 -7 -195 52 -65 31 -136 60 -158 64 l-41 7 50 16
c28 9 84 24 125 33 41 10 79 22 85 26 13 13 88 -63 118 -120z m-5893 89 c0 -5
-2 -10 -4 -10 -3 0 -8 5 -11 10 -3 6 -1 10 4 10 6 0 11 -4 11 -10z m146 -29
c0 -10 -5 -17 -11 -15 -5 2 -21 -13 -35 -33 -14 -20 -52 -63 -85 -94 -50 -49
-58 -60 -46 -71 8 -7 11 -8 8 -2 -4 6 6 23 22 38 25 24 29 25 42 10 11 -14 11
-18 -2 -28 -9 -6 -14 -16 -12 -23 2 -6 -1 -14 -6 -18 -6 -3 -11 1 -11 9 0 11
-6 9 -24 -9 -30 -30 -92 -48 -119 -34 -17 10 -13 17 54 77 41 37 108 99 149
139 41 40 75 73 75 73 1 0 1 -8 1 -19z m909 -40 c64 -40 70 -54 42 -109 -16
-33 -31 -30 -37 10 -4 24 -14 -12 -37 -132 -18 -91 -35 -183 -38 -204 -7 -51
-12 -55 -25 -20 -18 46 -15 238 5 372 10 67 21 122 24 121 3 0 33 -17 66 -38z
m-939 -27 c-1 -8 -9 -20 -17 -25 -8 -5 -10 -9 -5 -9 5 0 3 -7 -4 -15 -6 -8 -9
-18 -6 -23 11 -18 -19 -33 -38 -19 -16 12 -14 16 23 50 23 20 39 37 35 37 -3
0 -2 5 1 10 9 15 14 12 11 -6z m5227 -6 c32 -23 66 -58 67 -69 0 -3 -21 -6
-47 -8 -39 -2 -64 6 -137 41 l-88 43 43 6 c93 13 129 10 162 -13z m182 -8 c61
-21 89 -38 93 -58 1 -9 -9 -7 -35 6 -57 29 -172 65 -187 59 -8 -3 -22 1 -33 9
-16 14 -12 15 44 9 35 -3 88 -15 118 -25z m-5600 -10 c-3 -5 -12 -10 -18 -10
-7 0 -6 4 3 10 19 12 23 12 15 0z m5209 -25 c48 -19 94 -35 102 -35 30 0 8
-23 -39 -41 -43 -17 -50 -18 -71 -4 -30 20 -228 31 -308 17 -32 -5 -58 -8 -58
-6 0 12 244 103 276 104 6 0 51 -16 98 -35z m-3886 -53 l63 -57 -40 -64 c-22
-35 -47 -71 -56 -80 -15 -15 -16 -14 -9 14 3 17 11 34 15 40 5 5 9 18 9 29 0
11 -3 16 -8 11 -10 -13 -57 -159 -85 -266 -16 -61 -27 -85 -40 -87 -15 -2 -17
6 -17 67 0 38 6 103 14 144 19 97 77 307 85 307 3 0 34 -26 69 -58z m3207 -4
c-1 -13 -3 -27 -4 -32 0 -6 -5 -6 -12 1 -14 14 -76 -15 -82 -39 -4 -12 -11
-16 -23 -11 -12 4 -15 3 -10 -5 4 -7 0 -15 -11 -18 -55 -18 -172 -72 -204 -94
-16 -12 -29 -18 -29 -13 0 4 -5 1 -10 -7 -6 -10 -10 -11 -10 -3 0 13 -4 11
-88 -61 -26 -21 -48 -34 -50 -27 -9 28 166 202 259 258 57 34 179 71 240 72
32 1 36 -2 34 -21z m-667 -13 c20 -16 34 -43 46 -83 18 -65 21 -157 6 -167 -6
-4 -8 -11 -5 -16 4 -5 2 -9 -3 -9 -6 0 -13 -7 -16 -16 -4 -9 -2 -13 6 -8 28
17 -34 -65 -98 -131 l-72 -72 -6 39 c-4 22 -20 78 -37 126 -40 110 -43 194
-11 267 30 66 65 95 119 95 30 0 50 -7 71 -25z m-2731 -17 c-3 -8 -6 -5 -6 6
-1 11 2 17 5 13 3 -3 4 -12 1 -19z m-412 -130 c60 -14 80 -30 95 -71 8 -25 8
-29 -2 -19 -6 6 -22 12 -34 12 -13 0 -31 8 -40 18 -17 16 -18 16 -11 0 4 -11
2 -18 -6 -19 -7 -1 2 -5 18 -10 45 -12 -90 0 -144 13 -48 12 -64 36 -76 119
l-7 46 79 -38 c43 -21 101 -44 128 -51z m753 13 c70 -99 70 -104 12 -162 -45
-45 -59 -42 -21 6 15 19 15 19 -2 5 -11 -8 -44 -63 -74 -124 -39 -77 -57 -105
-63 -95 -5 8 -5 16 2 20 6 4 7 13 1 23 -7 13 -11 10 -22 -19 -11 -31 -31 -49
-31 -27 0 26 44 182 66 234 31 76 86 198 89 198 1 0 21 -26 43 -59z m-2158 19
c24 -24 25 -38 4 -68 -17 -24 -62 -30 -82 -10 -17 17 -15 64 4 82 21 22 50 20
74 -4z m5588 -163 c29 -27 28 -44 -8 -100 -42 -66 -344 -368 -460 -459 -393
-309 -890 -531 -1371 -613 -228 -38 -588 -49 -839 -25 -637 60 -1246 315
-1720 721 -119 101 -321 311 -315 326 2 8 1 12 -4 9 -11 -7 -44 30 -66 73 -16
32 -16 35 3 60 14 19 30 27 60 29 39 3 41 1 112 -82 298 -358 702 -642 1158
-817 324 -124 644 -186 1012 -196 427 -12 843 69 1250 244 176 76 279 133 500
279 146 96 349 284 513 473 102 117 121 126 175 78z m-5292 -22 c31 -28 35
-35 19 -34 -36 2 -44 -1 -50 -21 -4 -13 -15 -20 -30 -20 -18 0 -26 -7 -31 -25
-12 -47 -27 -27 -21 28 12 115 43 135 113 72z m1044 5 c25 -4 81 -11 125 -15
44 -4 84 -10 89 -12 14 -9 -17 -23 -52 -23 -27 0 -31 -2 -20 -13 7 -8 20 -12
30 -9 10 2 18 0 18 -5 0 -10 -91 -23 -164 -23 -40 0 -43 3 -74 53 -37 60 -39
72 -14 62 9 -3 37 -10 62 -15z m2927 -2 c36 -39 55 -89 58 -150 3 -53 0 -64
-27 -104 -18 -24 -28 -47 -24 -51 4 -4 9 3 13 15 3 12 9 22 14 22 13 0 11 -6
-10 -41 -12 -19 -20 -26 -23 -17 -3 8 -12 -1 -23 -22 -10 -18 -24 -40 -32 -48
-8 -8 -11 -23 -8 -36 5 -17 4 -18 -4 -6 -9 12 -11 10 -11 -12 0 -15 -4 -30
-10 -33 -6 -4 -7 1 -4 12 5 14 4 15 -4 4 -7 -10 -7 -21 -1 -33 5 -10 6 -18 2
-17 -23 4 -35 -2 -29 -17 3 -8 2 -13 -3 -10 -8 5 -44 -111 -44 -141 0 -7 -9
-13 -20 -13 -18 0 -19 5 -13 46 13 99 113 298 201 405 45 53 46 74 4 65 -16
-3 -37 -13 -45 -21 -9 -8 -20 -15 -25 -15 -5 0 -9 -11 -9 -25 0 -37 -17 -31
-40 15 -64 125 35 317 117 228z m2007 3 c24 -27 17 -62 -17 -81 -27 -14 -29
-14 -53 13 -29 34 -30 41 -4 67 25 25 52 25 74 1z m-4002 -84 c2 -21 -8 -33
-67 -73 -39 -26 -76 -55 -83 -63 -24 -30 30 74 76 146 l47 71 11 -28 c7 -16
14 -40 16 -53z m3729 71 c21 -17 52 -69 45 -75 -2 -3 -15 4 -27 16 -17 15 -26
18 -40 10 -11 -5 -19 -6 -19 -2 0 4 -14 -8 -31 -25 -37 -37 -53 -41 -43 -10
24 77 78 116 115 86z m-994 -13 c8 -9 14 -17 12 -19 -11 -9 -102 -38 -159 -51
-78 -17 -146 -33 -180 -42 l-25 -6 30 -7 c26 -7 24 -8 -15 -8 -25 0 -67 -4
-95 -10 l-49 -10 24 19 c14 11 52 35 85 53 136 76 333 119 372 81z m53 -11 c0
-2 -7 -4 -15 -4 -8 0 -15 4 -15 10 0 5 7 7 15 4 8 -4 15 -8 15 -10z m-4301
-148 c36 -39 87 -94 113 -122 l48 -51 -39 -41 -39 -41 -66 69 c-68 72 -85 81
-106 55 -11 -14 -6 -24 36 -68 27 -28 53 -54 58 -58 4 -4 -8 -24 -27 -45 l-35
-39 -63 63 c-34 34 -64 62 -65 62 -2 0 -13 -8 -23 -17 -19 -16 -18 -18 50 -94
38 -42 69 -80 69 -84 0 -4 -11 -16 -25 -27 -14 -11 -25 -25 -25 -32 0 -18 129
-138 141 -131 5 4 65 73 135 156 69 82 129 149 132 149 4 0 32 -26 64 -57 l58
-57 0 -135 0 -135 68 92 c37 50 70 90 73 89 3 -1 29 -23 58 -49 l51 -46 -64
-89 c-136 -186 -181 -256 -168 -261 7 -2 33 -19 56 -37 68 -52 86 -59 101 -43
8 7 55 90 106 183 51 94 93 171 94 173 2 2 25 -10 51 -26 27 -16 97 -55 156
-86 l107 -56 -12 -28 c-7 -16 -19 -39 -27 -51 l-15 -22 -81 40 c-72 36 -114
50 -114 37 0 -2 -3 -11 -6 -19 -4 -11 16 -28 68 -58 40 -24 75 -44 77 -46 6
-4 -20 -61 -33 -72 -9 -7 -35 2 -88 30 l-77 39 -15 -22 c-15 -21 -15 -24 6
-40 13 -9 55 -33 95 -54 l72 -36 -21 -39 c-11 -22 -19 -41 -17 -43 15 -14 155
-64 161 -58 7 7 110 248 143 335 10 26 21 47 25 47 22 0 226 -72 255 -90 58
-36 85 -76 85 -126 0 -67 -32 -122 -86 -145 -24 -11 -44 -22 -44 -23 0 -19 43
-136 53 -144 11 -9 143 -48 192 -56 11 -2 29 -7 40 -11 14 -6 13 -2 -7 14 -65
52 -96 147 -75 228 36 139 182 207 341 159 46 -14 116 -54 116 -67 0 -18 -67
-88 -80 -84 -8 2 -36 11 -62 21 -94 32 -168 -7 -168 -90 0 -37 5 -48 30 -69
31 -27 82 -43 100 -32 18 11 11 33 -14 39 -23 6 -24 7 -12 53 15 55 12 54 124
20 64 -19 72 -24 67 -42 -4 -15 -31 -149 -35 -172 0 -2 -8 -3 -17 -3 -10 -1
-28 -7 -41 -14 -21 -11 -14 -14 73 -24 53 -7 135 -15 183 -18 l87 -7 -4 88 -3
88 -73 116 c-71 114 -95 156 -95 164 0 2 36 3 81 3 l81 -2 42 -66 c23 -37 44
-70 48 -73 3 -3 25 26 49 64 l44 70 83 1 83 0 -16 -29 c-8 -17 -49 -82 -90
-145 l-75 -115 0 -85 0 -85 28 4 c15 2 88 6 163 9 124 5 406 40 418 51 2 3 0
5 -5 5 -5 0 -20 9 -33 19 l-25 19 38 55 c29 42 42 53 57 50 26 -7 49 14 49 46
0 14 -13 80 -30 145 -16 66 -29 120 -27 121 13 10 142 34 147 28 14 -15 60
-242 60 -293 0 -53 -19 -112 -47 -142 -15 -17 -14 -17 28 1 24 10 122 43 217
72 168 53 171 54 128 61 -62 9 -101 35 -141 93 -31 45 -112 241 -103 250 2 2
34 15 71 28 l68 25 12 -32 c8 -17 24 -60 37 -96 32 -90 63 -130 101 -130 29 0
79 37 79 59 0 14 -35 119 -63 189 l-26 62 66 30 c36 17 69 30 72 30 8 0 19
-27 67 -158 40 -109 44 -174 14 -232 l-20 -39 73 34 c39 18 100 46 134 63 l62
29 -104 183 -105 184 62 34 61 35 23 -28 c12 -15 56 -87 97 -159 42 -72 82
-139 89 -148 12 -15 23 -11 121 53 59 38 112 69 117 69 6 0 10 5 10 10 0 6
-19 10 -43 10 -98 0 -185 74 -209 178 -28 126 83 257 236 278 l46 7 0 -62 c0
-56 -2 -61 -21 -61 -58 0 -118 -72 -105 -125 23 -91 142 -84 197 13 l22 39 51
-34 c28 -18 57 -33 66 -33 8 0 41 26 74 57 l59 57 -144 137 -144 136 57 64
c31 35 85 94 120 131 l63 68 39 -34 39 -34 -61 -77 c-34 -42 -62 -80 -62 -84
0 -5 7 -14 15 -21 15 -12 13 -14 98 85 l26 30 31 -30 30 -31 -45 -64 c-41 -58
-44 -66 -30 -80 14 -13 21 -10 64 35 26 28 52 58 57 68 10 18 12 17 47 -3 30
-18 47 -21 35 -7 -4 4 59 90 87 119 61 65 161 84 208 40 34 -32 41 -65 21
-105 -33 -64 -212 -275 -359 -424 -320 -323 -644 -555 -1047 -747 -382 -182
-738 -293 -1078 -336 -673 -84 -1270 -6 -1876 246 -281 116 -631 310 -834 462
-41 30 -99 74 -129 96 -185 139 -455 409 -629 629 -65 82 -78 111 -68 152 8
31 59 59 93 50 36 -9 74 -35 82 -57 6 -17 11 -16 56 18 28 20 73 58 100 85 79
75 159 137 169 131 5 -3 39 -37 75 -76z m924 17 c15 -17 13 -18 -26 -21 -23
-1 -85 -6 -137 -11 -79 -6 -99 -5 -117 8 -12 9 -23 19 -23 23 0 7 67 12 216
16 57 2 74 -2 87 -15z m-128 -53 c3 -5 -3 -10 -14 -10 -11 0 -22 -4 -26 -9 -7
-13 -45 -5 -63 12 -11 12 -5 14 42 16 30 1 57 -3 61 -9z m3219 -10 c54 -20 20
-51 -71 -65 -28 -5 -47 -14 -57 -30 -10 -15 -22 -22 -31 -19 -8 4 -15 1 -15
-6 0 -7 -6 -10 -14 -7 -8 3 -16 2 -18 -2 -2 -4 -48 -15 -103 -25 -55 -9 -112
-23 -127 -31 -16 -7 -28 -10 -28 -5 0 10 70 98 96 122 27 23 105 57 157 67 60
12 181 13 211 1z m-2991 -61 c23 -5 53 -18 66 -28 23 -17 22 -17 -45 -9 -38 4
-106 9 -151 10 -46 2 -83 6 -83 9 0 5 100 23 153 27 10 1 37 -3 60 -9z m602
-124 c29 -28 33 -79 10 -109 -8 -11 -15 -15 -15 -8 0 8 -7 9 -27 1 -22 -8 -30
-7 -38 5 -10 13 -12 12 -22 -2 -9 -15 -12 -15 -28 -2 -22 18 -16 92 10 120 26
29 80 26 110 -5z m458 -90 c215 -61 633 -59 838 4 l59 19 0 -28 c0 -62 -55
-87 -241 -110 -127 -16 -500 -7 -594 14 -96 22 -125 35 -136 63 -14 38 -11 66
6 59 9 -3 39 -12 68 -21z m1611 -35 c14 -14 17 -26 12 -54 -7 -36 -20 -46 -30
-23 -5 10 -7 10 -12 0 -8 -18 -27 -16 -20 2 4 11 -2 15 -20 15 -19 0 -25 -4
-21 -14 3 -8 -2 -17 -11 -21 -9 -3 -13 -3 -10 1 4 3 1 13 -7 21 -18 17 -19 42
-2 64 32 42 84 46 121 9z"/>
<path d="M5290 8848 l0 -63 57 1 c87 0 125 31 108 85 -9 27 -44 39 -111 39
l-54 0 0 -62z"/>
<path d="M5290 8555 l0 -65 76 3 c66 2 78 5 95 26 25 31 24 47 -6 76 -21 22
-33 25 -95 25 l-70 0 0 -65z"/>
<path d="M6027 8750 c-8 -33 -13 -60 -11 -60 1 0 28 -7 60 -15 49 -13 60 -13
84 0 77 40 35 103 -86 129 -31 7 -31 7 -47 -54z"/>
<path d="M5971 8521 c-10 -19 -33 -113 -29 -115 14 -9 120 -36 140 -36 60 0
93 70 51 111 -10 10 -49 27 -86 38 -62 17 -68 17 -76 2z"/>
<path d="M2960 7957 c-92 -50 -123 -98 -123 -188 1 -89 41 -145 122 -174 24
-8 58 -15 75 -15 37 0 102 29 133 59 86 82 72 227 -28 297 -46 31 -140 43
-179 21z"/>
<path d="M5302 7700 c0 -14 2 -19 5 -12 2 6 2 18 0 25 -3 6 -5 1 -5 -13z"/>
<path d="M5481 7571 c-8 -5 -9 -11 -3 -15 5 -3 12 1 16 9 6 17 6 18 -13 6z"/>
<path d="M5284 7334 c-16 -9 -32 -20 -36 -27 -11 -18 11 -37 43 -37 35 0 46
-28 24 -69 -18 -35 -41 -50 -72 -45 -29 5 -41 -16 -18 -33 69 -50 167 44 146
139 -17 75 -42 95 -87 72z"/>
<path d="M5228 6983 c7 -3 16 -2 19 1 4 3 -2 6 -13 5 -11 0 -14 -3 -6 -6z"/>
<path d="M8193 7016 c-39 -11 -74 -24 -78 -27 -7 -8 74 -110 92 -116 11 -4 59
87 78 147 8 25 2 24 -92 -4z"/>
<path d="M6480 6930 c0 -5 5 -10 11 -10 5 0 7 5 4 10 -3 6 -8 10 -11 10 -2 0
-4 -4 -4 -10z"/>
<path d="M6450 6910 c-9 -6 -10 -10 -3 -10 6 0 15 5 18 10 8 12 4 12 -15 0z"/>
<path d="M3386 6017 c3 -10 9 -15 12 -12 3 3 0 11 -7 18 -10 9 -11 8 -5 -6z"/>
<path d="M2305 6000 c3 -5 8 -10 11 -10 2 0 4 5 4 10 0 6 -5 10 -11 10 -5 0
-7 -4 -4 -10z"/>
<path d="M3179 5863 c-13 -17 -13 -17 6 -3 11 8 22 16 24 17 2 2 0 3 -6 3 -6
0 -17 -8 -24 -17z"/>
<path d="M1739 5188 c-15 -29 -18 -73 -6 -117 l9 -34 23 57 c13 32 31 66 39
75 12 13 13 20 4 29 -20 20 -56 14 -69 -10z"/>
<path d="M1831 6463 c-57 -47 -25 -153 45 -153 41 0 94 45 94 80 0 29 -26 76
-45 84 -30 11 -73 6 -94 -11z"/>
<path d="M7646 6094 c-4 -20 -5 -38 -3 -40 3 -3 8 11 11 32 4 20 5 38 3 40 -3
3 -8 -11 -11 -32z"/>
<path d="M7811 6035 c-13 -19 -21 -40 -18 -47 4 -8 8 -5 12 10 4 12 11 22 16
22 12 0 31 38 21 44 -4 2 -18 -11 -31 -29z"/>
<path d="M6991 5983 c-1 -6 -10 -9 -23 -6 -23 5 -23 5 -3 -10 21 -17 41 -8 32
15 -3 8 -6 8 -6 1z"/>
<path d="M7016 5975 c-3 -9 0 -15 9 -15 16 0 20 16 6 24 -5 3 -11 -1 -15 -9z"/>
<path d="M6886 5935 c-3 -8 -1 -15 4 -15 6 0 10 7 10 15 0 8 -2 15 -4 15 -2 0
-6 -7 -10 -15z"/>
<path d="M6840 5910 c0 -5 4 -10 9 -10 6 0 13 5 16 10 3 6 -1 10 -9 10 -9 0
-16 -4 -16 -10z"/>
<path d="M6845 5879 c-4 -6 -13 -8 -21 -5 -8 3 -14 -1 -14 -10 0 -8 4 -12 10
-9 5 3 19 1 30 -5 12 -6 20 -7 20 -1 0 5 3 16 6 25 7 18 -21 23 -31 5z"/>
<path d="M6655 5689 c-4 -6 -4 -13 -1 -16 3 -4 6 -1 6 5 0 6 7 9 17 5 11 -4
14 -3 9 5 -9 15 -23 15 -31 1z"/>
<path d="M6620 5659 c0 -5 5 -7 10 -4 6 3 10 8 10 11 0 2 -4 4 -10 4 -5 0 -10
-5 -10 -11z"/>
<path d="M7835 5530 c-9 -16 -13 -30 -11 -30 3 0 12 14 21 30 9 17 13 30 11
30 -3 0 -12 -13 -21 -30z"/>
<path d="M6180 5621 c-8 -6 -19 -7 -25 -5 -15 8 27 -26 46 -36 11 -6 16 -5 16
5 0 8 -4 12 -9 9 -16 -10 -30 7 -17 22 13 16 10 18 -11 5z"/>
<path d="M5643 5453 c9 -2 23 -2 30 0 6 3 -1 5 -18 5 -16 0 -22 -2 -12 -5z"/>
<path d="M3030 5310 c0 -5 5 -10 11 -10 5 0 7 5 4 10 -3 6 -8 10 -11 10 -2 0
-4 -4 -4 -10z"/>
<path d="M4000 4995 c0 -8 4 -15 10 -15 5 0 7 7 4 15 -4 8 -8 15 -10 15 -2 0
-4 -7 -4 -15z"/>
<path d="M5845 4870 c-3 -5 -1 -10 4 -10 6 0 11 5 11 10 0 6 -2 10 -4 10 -3 0
-8 -4 -11 -10z"/>
<path d="M5798 4863 c6 -2 18 -2 25 0 6 3 1 5 -13 5 -14 0 -19 -2 -12 -5z"/>
<path d="M4840 4506 c0 -80 12 -176 21 -176 5 0 9 52 9 115 0 96 -3 115 -15
115 -11 0 -15 -13 -15 -54z"/>
<path d="M5131 4255 c-95 -161 -161 -325 -132 -325 12 0 118 157 170 253 32
58 44 92 48 137 4 35 2 60 -4 60 -5 0 -42 -56 -82 -125z"/>
<path d="M4812 3925 c0 -16 2 -22 5 -12 2 9 2 23 0 30 -3 6 -5 -1 -5 -18z"/>
<path d="M5146 3917 c-15 -11 -18 -27 -17 -96 1 -46 4 -87 7 -92 3 -5 19 -9
35 -9 25 0 33 6 45 36 26 62 30 131 9 154 -21 23 -53 26 -79 7z"/>
<path d="M4832 3885 c0 -16 2 -22 5 -12 2 9 2 23 0 30 -3 6 -5 -1 -5 -18z"/>
<path d="M4866 3823 c-11 -11 -6 -23 9 -23 8 0 15 4 15 9 0 13 -16 22 -24 14z"/>
<path d="M4935 3649 c-9 -24 12 -312 25 -340 27 -60 97 -63 126 -6 17 32 16
32 -3 15 -29 -27 -68 -23 -93 10 -19 23 -21 35 -17 82 11 110 -18 292 -38 239z"/>
<path d="M4801 3194 c0 -11 3 -14 6 -6 3 7 2 16 -1 19 -3 4 -6 -2 -5 -13z"/>
<path d="M4970 3151 c-18 -34 -12 -76 15 -101 22 -20 30 -22 62 -14 48 12 57
35 10 27 -29 -4 -37 -1 -56 23 -16 20 -21 37 -17 56 6 33 1 36 -14 9z"/>
<path d="M4940 2901 c0 -26 14 -41 40 -41 19 0 18 31 -2 50 -29 27 -38 25 -38
-9z"/>
<path d="M6680 4474 c1 -5 7 -20 15 -34 13 -24 14 -24 15 -4 0 12 -7 27 -15
34 -8 7 -15 9 -15 4z"/>
<path d="M7683 4385 c0 -8 4 -15 9 -15 4 0 8 4 8 9 0 6 -4 12 -8 15 -5 3 -9
-1 -9 -9z"/>
<path d="M3096 4125 c4 -8 8 -15 10 -15 2 0 4 7 4 15 0 8 -4 15 -10 15 -5 0
-7 -7 -4 -15z"/>
<path d="M2595 3760 c3 -5 8 -10 11 -10 2 0 4 5 4 10 0 6 -5 10 -11 10 -5 0
-7 -4 -4 -10z"/>
<path d="M6790 3692 c0 -10 43 -52 53 -52 16 0 5 20 -23 40 -16 12 -30 17 -30
12z"/>
<path d="M6869 3323 c-13 -16 -12 -17 4 -4 16 13 21 21 13 21 -2 0 -10 -8 -17
-17z"/>
<path d="M6425 3386 c-26 -19 -21 -22 43 -29 40 -5 52 -3 52 7 0 8 -11 17 -24
20 -13 3 -30 8 -38 11 -7 3 -22 -1 -33 -9z"/>
<path d="M2963 2388 c-65 -79 -70 -88 -52 -88 11 0 42 -24 112 -86 l28 -25 -7
88 c-4 48 -10 110 -13 138 l-6 50 -62 -77z"/>
<path d="M4081 1928 c-14 -41 -4 -51 51 -52 39 -1 43 1 46 26 2 18 -4 31 -20
42 -37 26 -64 20 -77 -16z"/>
<path d="M4009 1743 c-26 -70 -24 -77 29 -93 l49 -16 -14 59 c-7 33 -16 63
-19 68 -11 18 -35 8 -45 -18z"/>
</g>
</svg>
